<svg width="96" height="21" viewBox="0 0 96 21" fill="none" xmlns="http://www.w3.org/2000/svg">
<path fill-rule="evenodd" clip-rule="evenodd" d="M0.737819 0C0.330333 0 0 0.325479 0 0.726978V19.9465C0 20.3479 0.330333 20.6734 0.737819 20.6734H4.37792C4.7854 20.6734 5.11573 20.3479 5.11573 19.9465V12.4973C5.11573 12.2483 5.24509 12.0166 5.45855 11.8833L9.60302 9.29491C10.0943 8.98811 10.7358 9.33587 10.7358 9.90893V12.0974V19.9465C10.7358 20.3479 11.0662 20.6734 11.4737 20.6734H15.1138C15.5212 20.6734 15.8516 20.3479 15.8516 19.9465V0.726978C15.8516 0.325479 15.5212 0 15.1138 0H11.4737C11.0662 0 10.7358 0.325479 10.7358 0.726978V7.13915C10.7358 7.54065 10.4055 7.86613 9.99802 7.86613H7.92579H5.85355C5.44607 7.86613 5.11573 7.54065 5.11573 7.13915V0.726978C5.11573 0.325479 4.7854 0 4.37792 0H0.737819ZM16.7387 14.3692V13.9148C16.7387 11.9364 17.4256 10.3367 18.7994 9.11562C20.1828 7.89452 22.0177 7.28398 24.3042 7.28398C26.6003 7.28398 28.4304 7.89452 29.7946 9.11562C31.1684 10.3367 31.8553 11.9364 31.8553 13.9148V14.3692C31.8553 16.3665 31.1684 17.9709 29.7946 19.1826C28.4304 20.3942 26.6003 21 24.3042 21C22.0081 21 20.1732 20.3942 18.7994 19.1826C17.4256 17.9709 16.7387 16.3665 16.7387 14.3692ZM21.7391 13.7586V14.5112C21.7391 15.4293 21.9553 16.1819 22.3876 16.7688C22.8199 17.3462 23.454 17.6349 24.2898 17.6349C25.1352 17.6349 25.7741 17.3462 26.2064 16.7688C26.6483 16.1819 26.8693 15.4246 26.8693 14.497V13.7586C26.8693 12.8499 26.6483 12.1163 26.2064 11.5578C25.7741 10.9899 25.1352 10.7059 24.2898 10.7059C23.454 10.7059 22.8199 10.9899 22.3876 11.5578C21.9553 12.1163 21.7391 12.8499 21.7391 13.7586ZM87.0222 16.783C87.0222 16.6255 86.8938 16.4973 86.7341 16.4952L82.9732 16.4458C82.8248 16.4438 82.7057 16.5659 82.7135 16.712C82.7615 18.0845 83.3524 19.1447 84.486 19.8925C85.6292 20.6308 87.2528 21 89.3568 21C91.5183 21 93.1659 20.6308 94.2996 19.8925C95.4332 19.1542 96 18.0325 96 16.5274C96 15.3915 95.5773 14.5017 94.7319 13.858C93.8865 13.2049 92.5126 12.7221 90.6105 12.4097C89.4672 12.211 88.6795 12.0122 88.2471 11.8134C87.8244 11.6146 87.6131 11.359 87.6131 11.0467C87.6131 10.6964 87.738 10.4408 87.9877 10.2799C88.2471 10.1095 88.6602 10.0243 89.2271 10.0243C89.8899 10.0243 90.3991 10.1332 90.7546 10.3509C91.1196 10.5686 91.3022 10.9473 91.3022 11.4868C91.3022 11.6515 91.4377 11.785 91.6048 11.785H95.3083C95.4754 11.785 95.6109 11.6515 95.6109 11.4868C95.6205 10.1237 95.0681 9.08249 93.9537 8.36308C92.8489 7.64368 91.3166 7.28398 89.3568 7.28398C87.3489 7.28398 85.7877 7.63421 84.6733 8.33469C83.5589 9.02569 83.0017 10.0433 83.0017 11.3874C83.0017 12.5991 83.4004 13.5504 84.1978 14.2414C84.9952 14.9229 86.2873 15.4246 88.0742 15.7465C89.2271 15.9452 90.0148 16.1535 90.4375 16.3712C90.8602 16.5794 91.0716 16.8729 91.0716 17.2515C91.0716 17.6491 90.9227 17.9378 90.6249 18.1176C90.3367 18.2975 89.8707 18.3874 89.2271 18.3874C88.5546 18.3874 88.0166 18.2738 87.6131 18.0467C87.2192 17.81 87.0222 17.3888 87.0222 16.783ZM68.0067 13.9006V14.355C68.0067 16.4185 68.6648 18.0419 69.9809 19.2252C71.2971 20.4084 73.1561 21 75.5578 21C77.4408 21 78.9107 20.6734 79.9674 20.0203C80.7896 19.5121 81.4229 18.8464 81.8671 18.023C82.0737 17.6401 81.8264 17.1911 81.3985 17.0897L78.5727 16.4199C78.2412 16.3414 77.9074 16.5056 77.6886 16.7632C77.5115 16.9716 77.3008 17.1486 77.0565 17.2941C76.653 17.5308 76.139 17.6491 75.5146 17.6491C74.6884 17.6491 74.0495 17.3698 73.598 16.8114C73.3857 16.5386 73.2245 16.2101 73.1142 15.826C72.9953 15.412 73.3457 15.0365 73.7823 15.0365H81.5497C81.9572 15.0365 82.2875 14.711 82.2875 14.3095V13.7586C82.2875 11.7519 81.6919 10.1758 80.5006 9.03043C79.3094 7.87559 77.6089 7.29817 75.3993 7.29817C73.1417 7.29817 71.3451 7.89452 70.0098 9.08722C68.6744 10.2799 68.0067 11.8844 68.0067 13.9006ZM73.2967 11.8328C73.0826 12.2393 73.4358 12.6653 73.9006 12.6653H77.4312C77.4789 12.6653 77.5177 12.6272 77.5177 12.5801C77.5177 12.0122 77.3399 11.5436 76.9845 11.1744C76.6386 10.8053 76.0958 10.6207 75.3561 10.6207C74.5587 10.6207 73.9535 10.8952 73.5404 11.4442C73.4487 11.5689 73.3675 11.6984 73.2967 11.8328ZM56.4731 20.6734C56.0656 20.6734 55.7353 20.3479 55.7353 19.9465V18.3117C55.7353 18.1405 55.7966 17.9748 55.9084 17.8438L60.5806 12.3693C60.9842 11.8964 60.643 11.1744 60.0159 11.1744H56.6748C56.2674 11.1744 55.937 10.849 55.937 10.4475V8.42272C55.937 8.02122 56.2674 7.69574 56.6748 7.69574H67.0014C67.4089 7.69574 67.7392 8.02122 67.7392 8.42272V10.2C67.7392 10.3708 67.6781 10.5363 67.5667 10.6672L62.9052 16.1425C62.5025 16.6156 62.8438 17.3367 63.4705 17.3367H67.4049C67.8124 17.3367 68.1427 17.6622 68.1427 18.0637V19.9465C68.1427 20.3479 67.8124 20.6734 67.4049 20.6734H56.4731ZM33.4514 7.69574C33.0439 7.69574 32.7136 8.02122 32.7136 8.42272V19.9465C32.7136 20.3479 33.0439 20.6734 33.4514 20.6734H36.9186C37.3261 20.6734 37.6564 20.3479 37.6564 19.9465V12.7027C37.6564 12.594 37.6802 12.4861 37.7318 12.39C37.9407 12.0006 38.1989 11.6711 38.5066 11.4016C38.8525 11.0892 39.2656 10.9331 39.7459 10.9331C40.2935 10.9331 40.7163 11.0798 41.0141 11.3732C41.3119 11.6572 41.4608 12.1636 41.4608 12.8925V19.9465C41.4608 20.3479 41.7911 20.6734 42.1986 20.6734H45.6946C46.1021 20.6734 46.4324 20.3479 46.4324 19.9465V12.6932C46.4324 12.5906 46.4536 12.4887 46.4999 12.3967C46.7019 11.9955 46.958 11.6591 47.2682 11.3874C47.6237 11.0845 48.0416 10.9331 48.522 10.9331C49.0696 10.9331 49.4875 11.0751 49.7757 11.359C50.0735 11.643 50.2224 12.1542 50.2224 12.8925V19.9465C50.2224 20.3479 50.5527 20.6734 50.9602 20.6734H54.4562C54.8637 20.6734 55.194 20.3479 55.194 19.9465V12.0264C55.194 10.3414 54.7953 9.13928 53.998 8.41988C53.2102 7.69101 52.1582 7.32657 50.842 7.32657C49.7853 7.32657 48.8342 7.53955 47.9888 7.96552C47.1567 8.38015 46.4865 8.95425 45.9782 9.68784C45.9739 9.69404 45.9667 9.69777 45.9591 9.69777C45.9492 9.69777 45.9404 9.69143 45.9372 9.68215C45.6767 8.91369 45.2029 8.33202 44.5158 7.93712C43.8241 7.53955 42.9931 7.34077 42.0228 7.34077C41.0141 7.34077 40.1398 7.54429 39.4001 7.95132C38.6633 8.35673 38.0647 8.91239 37.6043 9.61831C37.6009 9.62357 37.5949 9.62677 37.5886 9.62677C37.5783 9.62677 37.57 9.61856 37.57 9.60842V8.42272C37.57 8.02122 37.2396 7.69574 36.8321 7.69574H33.4514Z" fill="white"/>
</svg>
